<svg aria-label="새로운 게시물" class="_8-yf5 " color="#262626" fill="#262626" height="22" role="img" viewBox="0 0 48 48" width="22">
    <path d="M43.9 4c-2.5-2.4-5.5-4-12.2-4H16.2C9.6 0 6.6 1.6 4 4.1 1.6 6.6 0 9.6 0 16.2v15.5c0 6.6 1.6 9.7 4.1 12.2 2.5 2.4 5.5 4 12.2 4h15.5c6.6 0 9.7-1.6 12.2-4.1 2.4-2.5 4-5.5 4-12.2V16.2c0-6.6-1.6-9.6-4.1-12.2zm-7.6 21.5H25.5v10.8c0 .8-.7 1.5-1.5 1.5s-1.5-.7-1.5-1.5V25.5H11.7c-.8 0-1.5-.7-1.5-1.5s.7-1.5 1.5-1.5h10.8V11.7c0-.8.7-1.5 1.5-1.5s1.5.7 1.5 1.5v10.8h10.8c.8 0 1.5.7 1.5 1.5s-.7 1.5-1.5 1.5z"></path>
</svg>